<svg width="24" height="24" viewBox="0 0 24 24" fill="none" xmlns="http://www.w3.org/2000/svg">
<g clip-path="url(#clip0_163_2)">
<path d="M23.61 8.71004L12.61 0.21004C12.4351 0.0754318 12.2207 0.00244141 12 0.00244141C11.7793 0.00244141 11.5649 0.0754318 11.39 0.21004L0.39 8.71004C0.268985 8.8032 0.170915 8.92284 0.103311 9.05978C0.0357078 9.19672 0.00036708 9.34732 0 9.50004L0 23C0 23.2653 0.105357 23.5196 0.292893 23.7071C0.48043 23.8947 0.734784 24 1 24H23C23.2652 24 23.5196 23.8947 23.7071 23.7071C23.8946 23.5196 24 23.2653 24 23V9.50004C23.9996 9.34732 23.9643 9.19672 23.8967 9.05978C23.8291 8.92284 23.731 8.8032 23.61 8.71004Z" fill="black"/>
</g>
<defs>
<clipPath id="clip0_163_2">
<rect width="24" height="24" fill="white"/>
</clipPath>
</defs>
</svg>
