<?xml version="1.0" standalone="no"?>
<!DOCTYPE svg PUBLIC "-//W3C//DTD SVG 1.1//EN" 
  "http://www.w3.org/Graphics/SVG/1.1/DTD/svg11.dtd">
<svg width="4096" height="4096" viewBox="0 0 4096 4096"
     xmlns="http://www.w3.org/2000/svg" version="1.1">
<desc>meinhaus.002.blend, (Blender 5.0.0 Beta)</desc>
<polygon stroke="black" stroke-width="1" fill="rgb(204, 204, 204)" fill-opacity="0.25" points="2932.980,1491.930 2407.140,1493.002 2409.401,2601.528 2935.241,2600.455 " />
<polygon stroke="black" stroke-width="1" fill="rgb(204, 204, 204)" fill-opacity="0.25" points="1163.021,2604.069 1688.860,2602.997 1686.599,1494.473 1160.759,1495.545 " />
<polygon stroke="black" stroke-width="1" fill="rgb(204, 204, 204)" fill-opacity="0.25" points="1688.860,2602.997 2409.401,2601.528 2407.140,1493.002 1686.599,1494.473 " />
<polygon stroke="black" stroke-width="1" fill="rgb(204, 204, 204)" fill-opacity="0.25" points="4076.016,359.561 3727.620,0.000 2931.510,771.388 3279.906,1130.950 " />
<polygon stroke="black" stroke-width="1" fill="rgb(204, 204, 204)" fill-opacity="0.25" points="1164.490,3324.611 1690.330,3323.538 1688.860,2602.997 1163.021,2604.069 816.094,2965.049 " />
<polygon stroke="black" stroke-width="1" fill="rgb(204, 204, 204)" fill-opacity="0.25" points="1164.490,3324.611 816.094,2965.049 19.984,3736.438 368.380,4096.000 " />
<polygon stroke="black" stroke-width="1" fill="rgb(204, 204, 204)" fill-opacity="0.25" points="2931.510,771.388 2405.671,772.461 2407.140,1493.002 2932.980,1491.930 3279.906,1130.950 " />

</svg>
